<svg width="16" height="17" viewBox="0 0 16 17" fill="none" xmlns="http://www.w3.org/2000/svg">
<path fill-rule="evenodd" clip-rule="evenodd" d="M12.354 12.3541C12.3076 12.4006 12.2524 12.4376 12.1916 12.4628C12.1309 12.488 12.0658 12.501 12 12.501C11.9342 12.501 11.8691 12.488 11.8084 12.4628C11.7476 12.4376 11.6924 12.4006 11.646 12.3541L8 8.70708L4.354 12.3541C4.26011 12.448 4.13278 12.5007 4 12.5007C3.86722 12.5007 3.73989 12.448 3.646 12.3541C3.55211 12.2602 3.49937 12.1329 3.49937 12.0001C3.49937 11.8673 3.55211 11.74 3.646 11.6461L7.646 7.64608C7.69245 7.59952 7.74762 7.56258 7.80837 7.53737C7.86911 7.51216 7.93423 7.49919 8 7.49919C8.06577 7.49919 8.13089 7.51216 8.19163 7.53737C8.25238 7.56258 8.30755 7.59952 8.354 7.64608L12.354 11.6461C12.4006 11.6925 12.4375 11.7477 12.4627 11.8084C12.4879 11.8692 12.5009 11.9343 12.5009 12.0001C12.5009 12.0659 12.4879 12.131 12.4627 12.1917C12.4375 12.2525 12.4006 12.3076 12.354 12.3541ZM15 5.00008C15 5.13269 14.9473 5.25987 14.8536 5.35364C14.7598 5.4474 14.6326 5.50008 14.5 5.50008L1.5 5.50008C1.36739 5.50008 1.24021 5.4474 1.14645 5.35364C1.05268 5.25987 1 5.13269 1 5.00008C1 4.86747 1.05268 4.7403 1.14645 4.64653C1.24021 4.55276 1.36739 4.50008 1.5 4.50008L14.5 4.50008C14.6326 4.50008 14.7598 4.55276 14.8536 4.64653C14.9473 4.7403 15 4.86747 15 5.00008Z" fill="#2C2E3A"/>
</svg>
