<svg width="20" height="19" viewBox="0 0 20 19" fill="none" xmlns="http://www.w3.org/2000/svg">
<path d="M11.543 3.22102C11.543 3.10638 11.5085 2.99428 11.4439 2.89876C11.3794 2.80323 11.2875 2.72853 11.1799 2.68398C11.0723 2.63944 10.9537 2.62703 10.839 2.64832C10.7242 2.66961 10.6184 2.72365 10.5348 2.80367L7.05897 6.12617H5.01172C4.5393 6.12617 4.08623 6.3104 3.75218 6.63835C3.41814 6.96629 3.23047 7.41107 3.23047 7.87485V11.3606C3.23047 11.8243 3.41814 12.2691 3.75218 12.5971C4.08623 12.925 4.5393 13.1092 5.01172 13.1092H7.05778L10.5336 16.4609C10.6171 16.5412 10.7229 16.5956 10.8377 16.6172C10.9526 16.6387 11.0713 16.6265 11.1791 16.582C11.2869 16.5376 11.379 16.4629 11.4437 16.3673C11.5084 16.2717 11.543 16.1595 11.543 16.0447V3.22102ZM12.8623 6.35583C12.9108 6.29585 12.9709 6.24586 13.0392 6.20871C13.1074 6.17156 13.1825 6.14798 13.26 6.13932C13.3375 6.13066 13.416 6.13708 13.491 6.15823C13.566 6.17938 13.6361 6.21483 13.6971 6.26257L13.6995 6.26373L13.7018 6.26606L13.7078 6.27073L13.7256 6.28588L13.7802 6.33251C13.8238 6.37137 13.88 6.42655 13.9488 6.49806C14.083 6.64145 14.2576 6.85012 14.4298 7.12758C14.7753 7.68716 15.1102 8.51837 15.1102 9.6317C15.1102 10.7439 14.7753 11.5762 14.4298 12.1358C14.2912 12.3612 14.1301 12.5725 13.9488 12.7665C13.8726 12.8463 13.7925 12.9226 13.709 12.995L13.6995 13.0032H13.6983C13.6983 13.0032 13.1675 13.2864 12.8635 12.9122C12.7657 12.7922 12.7202 12.639 12.7369 12.4862C12.7536 12.3334 12.8311 12.1932 12.9525 12.0962L12.9549 12.0938L12.9763 12.0752C12.9984 12.0558 13.0321 12.0227 13.0772 11.9761C13.2044 11.839 13.3174 11.6898 13.4145 11.5308C13.6638 11.1286 13.9227 10.5025 13.9227 9.63053C13.9227 8.75852 13.6638 8.13482 13.4145 7.73379C13.2922 7.53606 13.1454 7.35397 12.9775 7.1917L12.9561 7.17305C12.8336 7.07668 12.7549 6.9366 12.7374 6.78345C12.7198 6.6303 12.7647 6.47655 12.8623 6.35583ZM14.8834 3.93099C14.8226 3.8816 14.7524 3.8446 14.6769 3.82216C14.6014 3.79971 14.5221 3.79227 14.4436 3.80026C14.3651 3.80826 14.289 3.83152 14.2198 3.86871C14.1506 3.9059 14.0896 3.95625 14.0405 4.01684C13.9913 4.07742 13.9549 4.14702 13.9335 4.22156C13.912 4.29611 13.9059 4.3741 13.9155 4.45098C13.9251 4.52787 13.9502 4.6021 13.9894 4.66935C14.0286 4.7366 14.081 4.79551 14.1436 4.84263L14.1567 4.85429L14.2184 4.90675C14.2754 4.95572 14.355 5.03149 14.4571 5.13408C14.659 5.34043 14.9321 5.65053 15.2052 6.05972C15.7515 6.87694 16.2977 8.08003 16.2977 9.63753C16.3024 10.9086 15.9221 12.1523 15.2052 13.2107C14.9321 13.6187 14.659 13.9265 14.4571 14.1316C14.3615 14.2291 14.2617 14.3225 14.1578 14.4114L14.1448 14.4231H14.1436C14.0238 14.5205 13.9476 14.6601 13.9316 14.812C13.9155 14.9639 13.9608 15.1159 14.0578 15.2354C14.1547 15.3548 14.2955 15.4321 14.4499 15.4507C14.6043 15.4693 14.76 15.4277 14.8834 15.3347L14.9226 15.3033L15.0117 15.2275C15.0865 15.161 15.1898 15.0666 15.3121 14.9419C15.6415 14.6061 15.938 14.2408 16.198 13.8507C17.0415 12.602 17.4891 11.1359 17.484 9.63753C17.4872 8.13802 17.0398 6.6709 16.198 5.4197C15.938 5.02924 15.6418 4.66318 15.3133 4.32619C15.1891 4.19963 15.0591 4.07866 14.9238 3.96363L14.8965 3.94148L14.8882 3.93448L14.8858 3.93215L14.8834 3.93099Z" fill="#2C2E3A"/>
</svg>
