<svg width="20" height="19" viewBox="0 0 20 19" fill="none" xmlns="http://www.w3.org/2000/svg">
<g clip-path="url(#clip0_1082_6452)">
<path fill-rule="evenodd" clip-rule="evenodd" d="M14.4531 3.41538C14.4531 3.20925 14.3697 3.01157 14.2213 2.86582C14.0728 2.72007 13.8714 2.63818 13.6615 2.63818C13.4515 2.63818 13.2501 2.72007 13.1017 2.86582C12.9532 3.01157 12.8698 3.20925 12.8698 3.41538V4.19257H3.36979C3.15983 4.19257 2.95847 4.27445 2.81 4.4202C2.66153 4.56596 2.57813 4.76364 2.57812 4.96976C2.57813 5.17589 2.66153 5.37357 2.81 5.51932C2.95847 5.66507 3.15983 5.74696 3.36979 5.74696H12.8698V6.52415C12.8698 6.73027 12.9532 6.92795 13.1017 7.07371C13.2501 7.21946 13.4515 7.30134 13.6615 7.30134C13.8714 7.30134 14.0728 7.21946 14.2213 7.07371C14.3697 6.92795 14.4531 6.73027 14.4531 6.52415V5.74696H16.0365C16.2464 5.74696 16.4478 5.66507 16.5963 5.51932C16.7447 5.37357 16.8281 5.17589 16.8281 4.96976C16.8281 4.76364 16.7447 4.56596 16.5963 4.4202C16.4478 4.27445 16.2464 4.19257 16.0365 4.19257H14.4531V3.41538ZM3.36979 8.85573C3.15983 8.85573 2.95847 8.93761 2.81 9.08336C2.66153 9.22911 2.57813 9.4268 2.57812 9.63292C2.57813 9.83904 2.66153 10.0367 2.81 10.1825C2.95847 10.3282 3.15983 10.4101 3.36979 10.4101H4.95313V11.1873C4.95313 11.3934 5.03653 11.5911 5.185 11.7369C5.33347 11.8826 5.53483 11.9645 5.74479 11.9645C5.95476 11.9645 6.15612 11.8826 6.30458 11.7369C6.45305 11.5911 6.53646 11.3934 6.53646 11.1873V10.4101H16.0365C16.2464 10.4101 16.4478 10.3282 16.5963 10.1825C16.7447 10.0367 16.8281 9.83904 16.8281 9.63292C16.8281 9.4268 16.7447 9.22911 16.5963 9.08336C16.4478 8.93761 16.2464 8.85573 16.0365 8.85573H6.53646V8.07853C6.53646 7.87241 6.45305 7.67473 6.30458 7.52898C6.15612 7.38322 5.95476 7.30134 5.74479 7.30134C5.53483 7.30134 5.33347 7.38322 5.185 7.52898C5.03653 7.67473 4.95313 7.87241 4.95313 8.07853V8.85573H3.36979ZM2.57812 14.2961C2.57812 14.09 2.66153 13.8923 2.81 13.7465C2.95847 13.6008 3.15983 13.5189 3.36979 13.5189H12.8698V12.7417C12.8698 12.5356 12.9532 12.3379 13.1017 12.1921C13.2501 12.0464 13.4515 11.9645 13.6615 11.9645C13.8714 11.9645 14.0728 12.0464 14.2213 12.1921C14.3697 12.3379 14.4531 12.5356 14.4531 12.7417V13.5189H16.0365C16.2464 13.5189 16.4478 13.6008 16.5963 13.7465C16.7447 13.8923 16.8281 14.09 16.8281 14.2961C16.8281 14.5022 16.7447 14.6999 16.5963 14.8456C16.4478 14.9914 16.2464 15.0733 16.0365 15.0733H14.4531V15.8505C14.4531 16.0566 14.3697 16.2543 14.2213 16.4C14.0728 16.5458 13.8714 16.6277 13.6615 16.6277C13.4515 16.6277 13.2501 16.5458 13.1017 16.4C12.9532 16.2543 12.8698 16.0566 12.8698 15.8505V15.0733H3.36979C3.15983 15.0733 2.95847 14.9914 2.81 14.8456C2.66153 14.6999 2.57813 14.5022 2.57812 14.2961Z" fill="#2C2E3A"/>
</g>
<defs>
<clipPath id="clip0_1082_6452">
<rect width="19" height="18.6526" fill="white" transform="translate(0.203125 0.305664)"/>
</clipPath>
</defs>
</svg>
