<svg width="15" height="16" viewBox="0 0 15 16" fill="none" xmlns="http://www.w3.org/2000/svg">
<path d="M14.0838 8.77082C13.9371 9.88994 13.4884 10.948 12.7861 11.8315C12.0837 12.7151 11.154 13.3907 10.0968 13.7861C9.03961 14.1814 7.89473 14.2815 6.78496 14.0756C5.67519 13.8697 4.6424 13.3656 3.79734 12.6174C2.95229 11.8691 2.32687 10.905 1.98813 9.8283C1.6494 8.75162 1.61014 7.60305 1.87457 6.50575C2.139 5.40846 2.69714 4.40385 3.48913 3.59965C4.28112 2.79546 5.27708 2.22202 6.3702 1.94084C9.40048 1.16365 12.5372 2.72348 13.6952 5.63018" stroke="black" stroke-width="1.74868" stroke-linecap="round" stroke-linejoin="round"/>
<path d="M14.1354 1.74609V5.63206H10.2494" stroke="black" stroke-width="1.74868" stroke-linecap="round" stroke-linejoin="round"/>
</svg>
