<svg width="16" height="17" viewBox="0 0 16 17" fill="none" xmlns="http://www.w3.org/2000/svg">
<path fill-rule="evenodd" clip-rule="evenodd" d="M3.646 4.64592C3.69245 4.59935 3.74762 4.56241 3.80837 4.5372C3.86911 4.512 3.93423 4.49902 4 4.49902C4.06577 4.49902 4.13089 4.512 4.19163 4.5372C4.25238 4.56241 4.30755 4.59935 4.354 4.64592L8 8.29292L11.646 4.64592C11.7399 4.55203 11.8672 4.49929 12 4.49929C12.1328 4.49929 12.2601 4.55203 12.354 4.64592C12.4479 4.7398 12.5006 4.86714 12.5006 4.99992C12.5006 5.13269 12.4479 5.26003 12.354 5.35392L8.354 9.35392C8.30755 9.40048 8.25238 9.43742 8.19163 9.46263C8.13089 9.48784 8.06577 9.50081 8 9.50081C7.93423 9.50081 7.86911 9.48784 7.80837 9.46263C7.74762 9.43742 7.69245 9.40048 7.646 9.35392L3.646 5.35392C3.59944 5.30747 3.56249 5.2523 3.53729 5.19155C3.51208 5.13081 3.49911 5.06568 3.49911 4.99992C3.49911 4.93415 3.51208 4.86903 3.53729 4.80828C3.56249 4.74754 3.59944 4.69236 3.646 4.64592ZM1 11.9999C1 11.8673 1.05268 11.7401 1.14645 11.6464C1.24021 11.5526 1.36739 11.4999 1.5 11.4999H14.5C14.6326 11.4999 14.7598 11.5526 14.8536 11.6464C14.9473 11.7401 15 11.8673 15 11.9999C15 12.1325 14.9473 12.2597 14.8536 12.3535C14.7598 12.4472 14.6326 12.4999 14.5 12.4999H1.5C1.36739 12.4999 1.24021 12.4472 1.14645 12.3535C1.05268 12.2597 1 12.1325 1 11.9999Z" fill="#2C2E3A"/>
</svg>
